<svg version="1.1" id="Layer_1" xmlns="http://www.w3.org/2000/svg" xmlns:xlink="http://www.w3.org/1999/xlink" x="0px" y="0px"
	 width="100%" viewBox="0 0 1120 928" enable-background="new 0 0 1120 928" xml:space="preserve">
<path fill="#000000" opacity="1.000000" stroke="none" 
	d="
M781.000000,929.000000 
	C520.698364,929.000000 260.896698,929.000000 1.095061,929.000000 
	C1.063375,928.865051 1.003912,928.730042 1.003910,928.595093 
	C0.999980,619.466125 1.000000,310.337189 1.000000,1.000000 
	C187.574432,1.000000 374.148926,1.000000 560.723450,1.000000 
	C747.367371,1.000000 934.011230,1.000000 1120.827637,1.000000 
	C1120.827637,310.333252 1120.827637,619.666626 1120.827637,929.000000 
	C1007.805359,929.000000 894.652649,929.000000 781.000000,929.000000 
M341.041382,706.956421 
	C341.041382,706.956421 341.075348,707.180054 341.075348,707.180054 
	C341.075348,707.180054 340.909607,707.039673 340.796814,706.260010 
	C340.789856,705.477417 340.782898,704.694885 341.393280,703.613220 
	C344.249329,701.387146 347.105377,699.161011 350.508392,697.461731 
	C401.324982,742.054382 460.441986,767.866699 527.597290,774.877441 
	C584.655518,780.834045 639.509277,771.710388 691.574707,747.731018 
	C803.118530,696.358154 879.654053,583.063660 877.289490,453.838043 
	C876.483521,409.787292 867.660645,367.713074 849.353088,327.123718 
	C852.886780,324.041168 856.588806,321.129150 859.919678,317.841125 
	C867.222717,310.632019 874.619995,303.485474 881.464233,295.852081 
	C892.106995,283.982239 902.840576,272.130981 912.599915,259.546143 
	C928.548401,238.980255 941.985291,216.771591 952.501343,192.900864 
	C955.008362,187.209885 956.986145,181.285736 959.207336,175.468811 
	C957.047180,175.361313 955.704590,175.761154 954.951233,176.656723 
	C948.307678,184.553589 942.269775,193.027145 935.089233,200.390488 
	C922.266418,213.539688 909.286377,226.628403 895.411377,238.631912 
	C882.220581,250.043396 867.938721,260.221497 853.870239,270.580200 
	C845.396118,276.819763 836.413208,282.368378 827.195496,287.609222 
	C826.642639,286.777527 826.097717,285.940399 825.535767,285.114868 
	C766.309692,198.107727 684.186157,149.692047 579.318054,142.078445 
	C508.061615,136.905106 441.642517,154.509872 382.712006,195.190262 
	C294.534027,256.060547 247.876770,340.881927 242.218811,447.959351 
	C240.751709,475.724670 244.344543,503.121338 249.785736,530.686890 
	C245.251556,532.927856 240.633270,535.015442 236.202744,537.445435 
	C229.385300,541.184509 222.630707,545.049316 215.975449,549.069397 
	C211.111847,552.007141 206.450867,555.280396 201.699570,558.404114 
	C201.889236,559.096191 202.078888,559.788269 202.268555,560.480347 
	C205.401703,560.986267 209.136230,562.835693 211.557724,561.751770 
	C219.528244,558.184082 226.969269,553.451660 234.717972,549.364319 
	C240.643417,546.238831 246.726929,543.413025 252.989471,541.328735 
	C269.034424,599.258911 298.558624,649.101929 342.144196,690.979248 
	C339.454987,693.922302 336.765808,696.865356 333.451385,699.648376 
	C333.020325,699.841309 332.502563,699.939087 332.170990,700.241211 
	C324.552246,707.183228 316.712311,713.906738 309.440704,721.196716 
	C304.986572,725.662109 298.375916,729.027893 299.016235,736.975830 
	C299.106171,738.091919 299.231750,739.205200 299.340820,740.319763 
	C300.635345,739.962097 302.243713,739.972900 303.170471,739.183472 
	C307.375366,735.601624 311.465332,731.874268 315.444519,728.041382 
	C318.436279,725.159546 321.197174,722.037964 324.002197,719.003052 
	C324.002197,719.003052 324.023621,719.061218 324.737885,719.012146 
	C328.277283,716.035461 331.736389,712.954895 335.392242,710.128906 
	C337.049683,708.847717 339.097412,708.071411 341.041382,706.956421 
z"/>
<path fill="#EE3D2B" opacity="1.000000" stroke="none" 
	d="
M827.658875,288.227478 
	C836.413208,282.368378 845.396118,276.819763 853.870239,270.580200 
	C867.938721,260.221497 882.220581,250.043396 895.411377,238.631912 
	C909.286377,226.628403 922.266418,213.539688 935.089233,200.390488 
	C942.269775,193.027145 948.307678,184.553589 954.951233,176.656723 
	C955.704590,175.761154 957.047180,175.361313 959.207336,175.468811 
	C956.986145,181.285736 955.008362,187.209885 952.501343,192.900864 
	C941.985291,216.771591 928.548401,238.980255 912.599915,259.546143 
	C902.840576,272.130981 892.106995,283.982239 881.464233,295.852081 
	C874.619995,303.485474 867.222717,310.632019 859.919678,317.841125 
	C856.588806,321.129150 852.886780,324.041168 848.878784,327.483765 
	C845.953125,330.063080 843.501770,332.282318 840.737244,334.675598 
	C834.586182,339.886261 828.748352,344.922882 822.609436,349.802094 
	C818.264038,346.506592 813.195801,344.025024 814.486328,337.481812 
	C814.477173,337.503387 814.435364,337.534790 814.218506,337.728210 
	C813.857666,338.051239 813.713684,338.180817 813.266052,338.359436 
	C809.221130,340.896942 805.479919,343.385406 801.390625,345.900421 
	C758.079285,372.973328 712.168274,393.945251 664.560059,411.859894 
	C656.179749,401.007141 648.089966,390.312744 640.375793,379.497681 
	C649.408447,375.932220 658.114746,372.605530 666.714478,369.023071 
	C717.172607,348.003357 766.725586,325.123901 813.717224,297.028168 
	C815.492004,295.967041 816.933655,294.348602 818.875488,293.054626 
	C822.033203,291.488770 824.846069,289.858124 827.658875,288.227478 
z"/>
<path fill="#F3F3F2" opacity="1.000000" stroke="none" 
	d="
M827.427185,287.918335 
	C824.846069,289.858124 822.033203,291.488770 818.709839,292.732208 
	C768.200562,217.519318 699.192810,171.508896 610.424377,155.766174 
	C572.772644,149.088791 535.033020,149.957687 497.651978,157.628403 
	C434.497864,170.587860 380.463684,200.672989 336.274841,247.511414 
	C290.901978,295.604828 263.492828,352.593994 254.887177,418.439606 
	C250.195023,454.341309 251.930969,489.877930 259.293365,525.490234 
	C256.151733,527.257935 253.226242,528.740356 250.300720,530.222778 
	C244.344543,503.121338 240.751709,475.724670 242.218811,447.959351 
	C247.876770,340.881927 294.534027,256.060547 382.712006,195.190262 
	C441.642517,154.509872 508.061615,136.905106 579.318054,142.078445 
	C684.186157,149.692047 766.309692,198.107727 825.535767,285.114868 
	C826.097717,285.940399 826.642639,286.777527 827.427185,287.918335 
z"/>
<path fill="#F4F4F3" opacity="1.000000" stroke="none" 
	d="
M841.050415,334.501587 
	C843.501770,332.282318 845.953125,330.063080 848.696045,327.802399 
	C867.660645,367.713074 876.483521,409.787292 877.289490,453.838043 
	C879.654053,583.063660 803.118530,696.358154 691.574707,747.731018 
	C639.509277,771.710388 584.655518,780.834045 527.597290,774.877441 
	C460.441986,767.866699 401.324982,742.054382 350.380127,696.959473 
	C352.729218,694.387573 355.206543,692.317871 357.948212,690.548218 
	C401.464233,727.842712 450.847778,751.924805 507.102509,761.516541 
	C545.090759,767.993774 582.997070,767.692261 620.792297,759.981079 
	C686.313721,746.612976 741.695190,715.051697 786.602478,665.741272 
	C837.152954,610.234497 864.024475,544.664001 867.019470,469.497559 
	C868.025330,444.252197 866.042786,419.213043 860.794617,394.515015 
	C856.398499,373.826355 850.051575,353.709717 841.050415,334.501587 
z"/>
<path fill="#E23C2F" opacity="1.000000" stroke="none" 
	d="
M250.043243,530.454834 
	C253.226242,528.740356 256.151733,527.257935 259.623566,525.388672 
	C260.948792,524.758179 261.768585,524.601685 262.500641,524.258179 
	C279.251953,516.398132 296.000763,508.532593 312.721497,500.607788 
	C313.849060,500.073395 314.750977,499.062866 316.139404,498.175110 
	C332.691437,499.646545 345.988312,494.477692 356.262726,481.261383 
	C360.931427,479.800629 365.206360,478.376007 369.578613,477.412598 
	C369.831848,484.257782 369.987823,490.641724 369.865509,497.270935 
	C342.098938,506.510284 314.526306,515.258484 287.172211,524.643677 
	C278.630341,527.574341 270.678711,532.225159 262.102020,536.055359 
	C258.744812,537.499390 255.742477,538.976685 252.740112,540.453918 
	C246.726929,543.413025 240.643417,546.238831 234.717972,549.364319 
	C226.969269,553.451660 219.528244,558.184082 211.557724,561.751770 
	C209.136230,562.835693 205.401703,560.986267 202.268555,560.480347 
	C202.078888,559.788269 201.889236,559.096191 201.699570,558.404114 
	C206.450867,555.280396 211.111847,552.007141 215.975449,549.069397 
	C222.630707,545.049316 229.385300,541.184509 236.202744,537.445435 
	C240.633270,535.015442 245.251556,532.927856 250.043243,530.454834 
z"/>
<path fill="#F4F4F3" opacity="1.000000" stroke="none" 
	d="
M252.864807,540.891357 
	C255.742477,538.976685 258.744812,537.499390 262.038666,536.464600 
	C264.061768,542.789734 265.617981,548.730835 267.552460,554.546021 
	C284.182739,604.538208 311.670685,647.587219 350.194641,683.853271 
	C347.563538,686.242981 344.982269,688.298645 342.401001,690.354370 
	C298.558624,649.101929 269.034424,599.258911 252.864807,540.891357 
z"/>
<path fill="#E74437" opacity="1.000000" stroke="none" 
	d="
M342.272583,690.666809 
	C344.982269,688.298645 347.563538,686.242981 350.505371,683.703857 
	C355.619476,679.169189 360.372986,675.117920 365.429993,671.204590 
	C368.690491,672.962585 371.190613,674.783630 368.768677,678.971863 
	C364.942078,682.921997 361.312988,686.585083 357.683899,690.248169 
	C355.206543,692.317871 352.729218,694.387573 350.106659,696.696045 
	C347.105377,699.161011 344.249329,701.387146 340.750671,703.823853 
	C334.746582,709.043396 329.385101,714.052307 324.023621,719.061218 
	C324.023621,719.061218 324.002197,719.003052 323.668762,719.027832 
	C319.920441,720.849731 316.505524,722.646851 313.090607,724.443909 
	C317.124634,718.686462 321.555206,713.874756 325.940674,709.022278 
	C328.687775,705.982666 331.366943,702.881714 334.076599,699.808350 
	C336.765808,696.865356 339.454987,693.922302 342.272583,690.666809 
z"/>
<path fill="#E22619" opacity="1.000000" stroke="none" 
	d="
M333.763977,699.728394 
	C331.366943,702.881714 328.687775,705.982666 325.940674,709.022278 
	C321.555206,713.874756 317.124634,718.686462 313.090607,724.443909 
	C316.505524,722.646851 319.920441,720.849731 323.698090,719.037903 
	C321.197174,722.037964 318.436279,725.159546 315.444519,728.041382 
	C311.465332,731.874268 307.375366,735.601624 303.170471,739.183472 
	C302.243713,739.972900 300.635345,739.962097 299.340820,740.319763 
	C299.231750,739.205200 299.106171,738.091919 299.016235,736.975830 
	C298.375916,729.027893 304.986572,725.662109 309.440704,721.196716 
	C316.712311,713.906738 324.552246,707.183228 332.170990,700.241211 
	C332.502563,699.939087 333.020325,699.841309 333.763977,699.728394 
z"/>
<path fill="#E22619" opacity="1.000000" stroke="none" 
	d="
M324.380768,719.036682 
	C329.385101,714.052307 334.746582,709.043396 340.441986,703.973389 
	C340.782898,704.694885 340.789856,705.477417 340.870361,706.648071 
	C340.943878,707.036072 340.968079,707.066040 340.968079,707.066040 
	C339.097412,708.071411 337.049683,708.847717 335.392242,710.128906 
	C331.736389,712.954895 328.277283,716.035461 324.380768,719.036682 
z"/>
<path fill="#E22619" opacity="1.000000" stroke="none" 
	d="
M340.926758,707.037842 
	C340.909607,707.039673 341.075348,707.180054 341.075348,707.180054 
	C341.075348,707.180054 341.041382,706.956421 341.004730,707.011230 
	C340.968079,707.066040 340.943878,707.036072 340.926758,707.037842 
z"/>
<path fill="#020202" opacity="1.000000" stroke="none" 
	d="
M357.948242,690.548218 
	C361.312988,686.585083 364.942078,682.921997 369.097778,678.916382 
	C370.591827,677.968506 371.621765,677.443481 372.517761,676.746277 
	C409.774170,647.758972 446.958221,618.678162 484.301605,589.803528 
	C495.327759,581.277893 506.799805,573.328979 518.405396,565.032166 
	C522.049072,563.096069 525.354858,561.243591 528.892944,559.691284 
	C536.297546,568.508179 543.095581,577.385986 550.809998,585.379395 
	C554.337158,589.033936 559.433105,591.594604 564.287048,593.362976 
	C566.559387,594.190857 570.903442,592.781372 572.533691,590.871155 
	C573.927979,589.237305 573.661011,585.020935 572.546753,582.709412 
	C571.190369,579.895691 568.351135,577.675598 565.850281,575.556458 
	C556.600952,567.718872 547.226746,560.028625 538.082336,552.061279 
	C539.165588,550.763367 540.065979,549.687134 541.297302,548.537842 
	C542.511780,548.058899 543.475647,547.770874 544.267273,547.230530 
	C575.141846,526.155701 605.992615,505.045898 636.885437,483.997894 
	C638.470154,482.918152 640.398499,482.342804 642.206543,482.044983 
	C642.246155,487.309937 642.246155,492.062561 642.246155,496.753723 
	C650.355225,496.753723 657.761902,496.753723 665.214539,496.753723 
	C665.214539,486.191162 665.214539,475.941864 665.418823,465.589844 
	C665.766785,465.060425 665.910461,464.633728 666.345459,464.148010 
	C667.078247,463.721405 667.519592,463.353790 667.979553,462.996490 
	C667.998169,463.006775 667.996155,462.964386 668.268616,462.920410 
	C668.783752,462.609863 669.026428,462.343323 669.536011,462.034668 
	C670.188477,461.636169 670.574036,461.279785 671.290649,460.840881 
	C674.376465,459.129791 677.131165,457.501221 679.946899,456.345856 
	C680.007812,470.081604 680.007812,483.344086 680.007812,496.784790 
	C687.309631,496.784790 694.196594,496.784790 701.655762,496.784790 
	C701.655762,492.989227 701.655762,489.476685 701.655762,484.441650 
	C702.923401,486.223907 703.367065,486.649994 703.576172,487.170319 
	C710.129944,503.481628 717.441895,519.541748 722.991333,536.189209 
	C729.454834,555.578369 732.650818,575.834534 729.052063,596.211060 
	C724.232910,623.496887 710.635803,635.769470 684.446228,634.199646 
	C677.917603,633.808350 671.387573,633.439453 664.623413,632.926758 
	C663.552612,632.543274 662.716614,632.293152 661.609253,631.750000 
	C659.546143,631.033020 657.754333,630.609009 655.664978,629.989746 
	C647.841919,627.118103 640.316345,624.441772 632.790771,621.765442 
	C632.590332,622.256470 632.389893,622.747498 632.189453,623.238525 
	C639.027710,628.658325 647.687988,629.920898 656.065796,632.566895 
	C657.562805,633.065063 658.831299,633.345886 660.476196,633.853394 
	C672.615356,637.455750 684.583374,639.032959 696.825256,638.137939 
	C713.507141,636.918335 724.714233,628.400269 730.493896,612.741150 
	C736.761597,595.759949 736.017761,578.357300 733.151672,560.944336 
	C728.214417,530.947815 717.092529,503.093933 703.695435,475.972046 
	C701.568237,471.665588 702.100525,466.045441 701.403198,461.032654 
	C702.038574,460.874268 702.673950,460.715851 703.309265,460.557434 
	C712.401550,471.787262 721.467590,483.038544 730.625000,494.214966 
	C731.584778,495.386292 733.046814,496.855774 734.340271,496.921661 
	C740.106018,497.215363 745.895142,497.049164 751.709351,497.049164 
	C751.709351,471.404358 751.709351,446.359314 751.709351,420.965240 
	C744.542786,420.965240 737.732422,420.965240 731.106995,420.681915 
	C738.176819,415.448151 745.161316,410.629517 751.927063,405.521332 
	C768.776123,392.800232 785.525696,379.947327 802.631348,367.053955 
	C804.671387,365.459442 806.395264,363.958344 808.275269,362.470459 
	C808.649658,362.379211 808.746887,362.206421 809.048279,361.849487 
	C811.926819,359.520721 814.480286,357.307831 817.345459,354.979248 
	C819.408264,353.228912 821.159363,351.594208 822.910461,349.959534 
	C828.748352,344.922882 834.586182,339.886261 840.737305,334.675629 
	C850.051575,353.709717 856.398499,373.826355 860.794617,394.515015 
	C866.042786,419.213043 868.025330,444.252197 867.019470,469.497559 
	C864.024475,544.664001 837.152954,610.234497 786.602478,665.741272 
	C741.695190,715.051697 686.313721,746.612976 620.792297,759.981079 
	C582.997070,767.692261 545.090759,767.993774 507.102509,761.516541 
	C450.847778,751.924805 401.464233,727.842712 357.948242,690.548218 
M775.053833,632.673523 
	C774.907349,632.650879 774.760803,632.628296 774.614319,632.605713 
	C774.819031,632.516296 775.023743,632.426880 774.932495,631.957275 
	C775.032104,631.522766 775.131653,631.088257 774.798828,630.019897 
	C777.076477,627.555603 779.354187,625.091370 780.945923,623.369202 
	C779.279297,621.928345 776.549255,619.568115 774.015869,617.377930 
	C772.679626,619.230103 771.043091,621.498413 769.597046,623.502747 
	C771.433899,625.838623 773.296143,628.206787 775.732788,631.500061 
	C775.541321,631.807068 775.349915,632.114014 775.053833,632.673523 
M813.192017,457.185211 
	C812.304382,455.843658 811.416748,454.502136 810.386047,452.944397 
	C819.687622,442.335632 828.806885,431.934814 838.429810,420.959534 
	C833.108398,420.959534 828.552673,421.564636 824.221741,420.835083 
	C814.854675,419.257233 808.773438,423.057861 803.595032,430.577118 
	C799.044189,437.184998 793.361145,443.013184 788.178223,449.185760 
	C787.810059,449.069275 787.441956,448.952789 787.073792,448.836304 
	C787.073792,439.683716 787.073792,430.531158 787.073792,421.300873 
	C779.141235,421.300873 771.898438,421.300873 764.557129,421.300873 
	C764.557129,446.622070 764.557129,471.661194 764.557129,496.762024 
	C772.137146,496.762024 779.386414,496.762024 786.955139,496.762024 
	C787.971924,487.135468 783.645386,475.996094 795.671631,469.941742 
	C796.519287,471.055359 797.664185,472.412476 798.648254,473.877625 
	C803.186951,480.635315 807.624207,487.462158 812.242676,494.164368 
	C813.078064,495.376709 814.564880,496.913452 815.795532,496.954132 
	C823.513550,497.209320 831.244141,497.083130 840.229126,497.083130 
	C830.862793,483.267822 822.229736,470.534119 813.192017,457.185211 
M450.942963,684.899231 
	C449.569580,685.317322 448.152710,685.630798 446.833557,686.179321 
	C445.086182,686.905945 443.415192,687.816406 441.711395,688.647827 
	C441.808014,688.125488 441.904663,687.603088 442.001312,687.080750 
	C443.760803,688.371704 445.881348,689.378906 447.180542,691.031677 
	C448.541443,692.763000 449.113708,695.114258 450.080688,697.307983 
	C450.044464,691.371826 453.148987,688.619141 458.712708,688.245056 
	C458.683624,688.184937 458.654510,688.124817 458.625397,688.064697 
	C458.483887,688.317749 458.342346,688.570740 458.200836,688.823792 
	C456.023132,687.601624 453.845428,686.379517 450.942963,684.899231 
M801.817688,548.140015 
	C801.650330,547.967529 801.501770,547.764587 801.303467,547.642212 
	C801.248413,547.608215 800.989746,547.782837 800.919189,547.913025 
	C799.511292,550.511414 798.117126,553.117310 796.726196,555.710693 
	C798.069153,557.350403 799.810486,559.476501 801.565186,561.618896 
	C803.342590,557.726074 803.450989,552.878601 801.817688,548.140015 
M651.334900,544.135498 
	C649.746338,544.915039 648.157837,545.694580 647.854248,545.843567 
	C649.404602,547.142273 651.802307,549.150879 654.166321,551.131226 
	C655.981384,549.450317 657.533081,548.013245 659.334839,546.344727 
	C656.569458,545.636597 656.251953,539.565430 651.334900,544.135498 
M473.827393,625.813904 
	C472.189575,626.410156 470.143433,626.624390 469.081451,627.759399 
	C468.527435,628.351501 469.262848,631.180664 470.226166,631.874817 
	C471.209869,632.583557 473.185913,631.914978 474.727539,631.849365 
	C474.642883,629.955505 474.558228,628.061707 473.827393,625.813904 
M768.960510,554.801147 
	C767.509399,555.744202 765.802673,556.478821 764.761353,557.755981 
	C764.444519,558.144531 765.706604,560.632324 766.712341,561.059265 
	C767.723389,561.488586 770.425293,560.629883 770.457275,560.194153 
	C770.581665,558.498169 769.939880,556.745972 768.960510,554.801147 
M720.615540,557.119080 
	C720.234802,558.820068 719.854065,560.521057 719.473328,562.222046 
	C720.962341,562.535217 722.628418,563.389160 723.880493,562.979004 
	C724.774902,562.686035 725.906311,559.993958 725.552795,559.595215 
	C724.466248,558.369629 722.716248,557.732239 720.615540,557.119080 
M815.032227,576.794495 
	C813.609070,575.802490 812.275757,574.331848 810.721252,574.040222 
	C810.044312,573.913208 808.347534,576.131897 808.177979,577.424805 
	C808.055115,578.361389 810.029419,580.556702 810.469421,580.408813 
	C812.137146,579.847961 813.560913,578.561523 815.032227,576.794495 
M719.446594,583.906677 
	C721.147705,584.299377 722.880676,585.036560 724.531250,584.883606 
	C725.055359,584.835022 725.951355,582.221436 725.595886,581.135498 
	C725.250488,580.080200 722.718323,578.631287 722.524658,578.814209 
	C721.192566,580.072571 720.222168,581.713684 719.446594,583.906677 
M764.436340,544.688416 
	C764.251831,543.084900 764.067322,541.481323 763.882874,539.877808 
	C762.619263,540.535583 761.355652,541.193298 760.092041,541.851013 
	C761.345764,542.891785 762.599548,543.932495 764.436340,544.688416 
M473.934052,657.273193 
	C474.633026,658.698242 475.331970,660.123230 476.030945,661.548279 
	C476.917511,660.613342 477.804077,659.678406 478.690643,658.743530 
	C477.264893,658.077576 475.839172,657.411621 473.934052,657.273193 
M700.635803,610.477234 
	C698.782715,608.707825 696.927490,608.618347 696.092407,611.206543 
	C695.802612,612.104980 697.149170,613.531372 697.748291,614.716614 
	C698.805603,613.500793 699.862854,612.284973 700.635803,610.477234 
M700.056274,579.617065 
	C702.073303,578.130615 702.675537,576.379028 700.236633,574.970825 
	C699.494446,574.542358 697.291870,575.113159 696.946045,575.813171 
	C695.880005,577.970886 696.459106,579.741516 700.056274,579.617065 
M797.047852,583.907898 
	C796.384705,582.570496 795.721558,581.233154 795.058350,579.895752 
	C794.178833,580.827454 793.299377,581.759094 792.419861,582.690796 
	C793.803223,583.266418 795.186584,583.842102 797.047852,583.907898 
z"/>
<path fill="#020202" opacity="1.000000" stroke="none" 
	d="
M369.481293,476.951355 
	C365.206360,478.376007 360.931427,479.800629 356.354431,480.879150 
	C356.177612,480.224915 356.273315,479.900604 356.432220,479.611023 
	C366.092377,462.006531 361.975433,439.573242 346.902100,427.707306 
	C332.183258,416.120392 305.978943,416.873535 292.316315,429.602142 
	C279.782501,441.279083 277.236206,456.011505 281.866638,471.738098 
	C286.723175,488.232544 299.112915,496.250732 315.757812,498.273804 
	C314.750977,499.062866 313.849060,500.073395 312.721497,500.607788 
	C296.000763,508.532593 279.251953,516.398132 262.500641,524.258179 
	C261.768585,524.601685 260.948792,524.758179 259.839691,525.103333 
	C251.930969,489.877930 250.195023,454.341309 254.887177,418.439606 
	C263.492828,352.593994 290.901978,295.604828 336.274841,247.511414 
	C380.463684,200.672989 434.497864,170.587860 497.651978,157.628403 
	C535.033020,149.957687 572.772644,149.088791 610.424377,155.766174 
	C699.192810,171.508896 768.200562,217.519318 818.364929,292.667419 
	C816.933655,294.348602 815.492004,295.967041 813.717224,297.028168 
	C766.725586,325.123901 717.172607,348.003357 666.714478,369.023071 
	C658.114746,372.605530 649.408447,375.932220 640.081848,379.268188 
	C638.200562,377.785767 636.975525,376.423737 635.778992,375.037140 
	C607.832642,342.652771 577.570007,312.761444 541.932373,288.774353 
	C517.354736,272.231598 491.568390,258.549194 461.373810,255.257568 
	C433.707916,252.241608 413.283539,267.195862 408.139801,294.601990 
	C404.400024,314.527435 406.983032,334.078064 411.559021,353.457336 
	C418.796509,384.108002 431.938232,412.451080 446.107574,440.373993 
	C447.339294,442.801239 447.945312,445.546021 448.488403,448.189392 
	C445.120819,449.291046 442.106781,450.346619 439.023468,450.928040 
	C439.326965,433.327698 432.704712,424.312012 415.845490,421.867188 
	C405.570007,420.377075 394.961273,421.156433 384.501129,420.980865 
	C379.563477,420.897980 374.623260,420.966675 369.481293,420.966675 
	C369.481293,440.021393 369.481293,458.486389 369.481293,476.951355 
M756.395447,275.021790 
	C758.857788,270.700958 753.470398,271.339600 753.064087,268.722015 
	C750.717285,270.592743 748.804382,272.117615 747.186340,273.407440 
	C749.010193,275.110504 750.874084,276.850952 752.862915,278.708130 
	C753.679993,277.679688 754.686646,276.412598 756.395447,275.021790 
M332.081726,358.324188 
	C332.916687,358.522949 334.061127,359.168030 334.531860,358.841583 
	C336.363770,357.571228 337.981842,355.992523 339.445648,354.730194 
	C337.591583,353.110291 335.839172,351.579163 333.959961,349.937286 
	C332.224365,351.455109 330.548126,352.921021 328.878723,354.380981 
	C329.933441,355.516357 330.927612,356.586548 332.081726,358.324188 
M619.713257,204.324875 
	C618.690918,205.260696 617.668640,206.196518 616.573120,207.199356 
	C618.454834,208.979645 620.048889,210.487747 621.683289,212.034103 
	C623.004089,210.945511 624.746826,210.198486 625.110901,209.024109 
	C625.511658,207.731110 625.094177,205.590042 624.177551,204.685959 
	C623.534851,204.052124 622.315613,199.978455 619.713257,204.324875 
M620.199341,278.512054 
	C622.061340,278.865967 623.948975,279.515472 625.766479,279.357513 
	C626.199158,279.319916 626.946045,276.396729 626.523804,275.146973 
	C626.204529,274.201996 623.518555,272.991791 623.160583,273.314331 
	C621.815002,274.526733 620.991699,276.318787 620.199341,278.512054 
M579.992432,216.750214 
	C579.662048,214.985596 579.637085,213.056702 578.826843,211.550156 
	C578.562073,211.057877 575.830811,211.178421 574.996582,211.903488 
	C574.133911,212.653320 573.623962,214.661804 573.982178,215.797028 
	C574.904907,218.721161 577.133545,218.695068 579.992432,216.750214 
M545.996704,209.133865 
	C544.210876,208.666870 542.422852,207.915009 540.640747,207.928711 
	C540.182251,207.932236 539.034119,210.701935 539.467773,211.566025 
	C540.050110,212.726410 542.413940,214.235596 543.032043,213.881714 
	C544.405151,213.095581 545.167786,211.243393 545.996704,209.133865 
M551.551514,238.859512 
	C552.297546,237.399979 553.043640,235.940430 553.789734,234.480896 
	C552.486816,234.326828 551.183899,234.172760 549.880981,234.018677 
	C550.222168,235.587692 550.563354,237.156723 551.551514,238.859512 
z"/>
<path fill="#F6F5F4" opacity="1.000000" stroke="none" 
	d="
M448.841980,448.143311 
	C447.945312,445.546021 447.339294,442.801239 446.107574,440.373993 
	C431.938232,412.451080 418.796509,384.108002 411.559021,353.457336 
	C406.983032,334.078064 404.400024,314.527435 408.139801,294.601990 
	C413.283539,267.195862 433.707916,252.241608 461.373810,255.257568 
	C491.568390,258.549194 517.354736,272.231598 541.932373,288.774353 
	C577.570007,312.761444 607.832642,342.652771 635.778992,375.037140 
	C636.975525,376.423737 638.200562,377.785767 639.706238,379.388794 
	C648.089966,390.312744 656.179749,401.007141 664.617432,412.204071 
	C669.719482,419.661896 674.473633,426.617188 679.227783,433.572479 
	C679.530457,433.429626 679.833191,433.286804 680.135864,433.143951 
	C680.135864,429.236389 680.135864,425.328796 680.135864,420.984039 
	C685.536377,420.984039 690.641602,421.179565 695.722351,420.911926 
	C698.852539,420.747070 701.186462,421.535706 702.623413,424.531921 
	C694.039917,430.444244 685.646729,436.048706 677.036499,441.320007 
	C673.385803,435.863495 669.952148,430.740112 666.518494,425.616699 
	C666.079346,425.733795 665.640137,425.850891 665.200928,425.967987 
	C665.200928,433.869507 665.200928,441.770996 665.080383,450.002594 
	C664.307678,451.230499 663.655457,452.128296 662.646973,453.013245 
	C654.055115,458.256897 645.819580,463.513428 637.296936,468.722046 
	C636.451599,468.799103 635.893311,468.924103 634.840698,468.972168 
	C628.329895,468.895203 622.313477,468.895203 616.213318,468.895203 
	C616.213318,473.805939 616.213318,477.902313 616.003784,482.276245 
	C611.105530,485.923279 606.494995,489.409729 601.696533,492.614746 
	C599.142151,494.320862 596.262329,495.539795 593.337036,496.544647 
	C593.052490,493.462646 592.889160,490.814880 592.880005,488.166565 
	C592.822449,471.418823 592.799072,454.670990 592.874878,437.476166 
	C592.985291,431.791595 592.985291,426.554077 592.985291,421.312927 
	C600.998596,421.312927 608.481384,421.312927 615.918030,421.312927 
	C616.101379,423.883667 616.253662,426.019287 616.305908,428.604980 
	C616.205933,435.628021 616.205933,442.200989 616.205933,448.795044 
	C625.148621,448.795044 633.646667,448.795044 642.464355,448.795044 
	C642.303345,446.264069 642.168091,444.137360 642.204041,441.760925 
	C642.261292,440.336700 642.147278,439.162231 642.167480,437.538147 
	C642.177551,432.052063 642.053406,427.015656 642.277100,421.733704 
	C649.289429,421.488220 655.953979,421.488220 664.044983,421.488220 
	C661.145630,418.082306 659.378052,416.005859 657.506470,413.578491 
	C649.322937,403.015015 641.243347,392.802460 633.062622,382.277832 
	C601.729492,344.327301 566.607056,310.998444 524.904358,285.067047 
	C505.824982,273.203186 485.602814,264.104523 462.913818,261.690033 
	C437.991302,259.037811 419.570465,272.545837 414.819550,297.072144 
	C411.656219,313.402557 413.365662,329.633270 416.646484,345.693756 
	C422.246185,373.105896 432.952637,398.668427 445.705963,423.435242 
	C446.379944,424.744049 447.274902,425.939087 448.798981,428.340485 
	C448.976532,424.950348 449.069427,423.176697 449.164795,421.355347 
	C469.721497,421.355347 490.120209,421.355347 510.621979,421.355347 
	C510.796417,423.227356 510.934143,424.705017 510.984314,426.623047 
	C510.896790,431.002960 510.896790,434.942535 510.896790,439.717438 
	C497.625092,439.717438 484.941956,439.717438 472.135864,439.717438 
	C472.135864,443.647797 472.135864,446.726898 472.135864,450.361664 
	C480.014740,450.361664 487.623932,450.276428 495.230469,450.382019 
	C506.027954,450.531891 506.027130,450.591949 506.963867,461.261353 
	C506.697815,463.622620 506.560730,465.560669 506.412933,467.649933 
	C505.043976,467.761993 504.075806,467.880707 503.104675,467.914581 
	C494.125488,468.227661 485.147339,468.613220 476.165253,468.773315 
	C473.609131,468.818909 471.723114,469.549866 473.182983,472.089569 
	C475.304108,475.779510 477.212097,479.491333 483.193787,478.980530 
	C492.546570,478.181793 502.017731,478.768829 511.476868,478.768829 
	C511.476868,485.242676 511.476868,490.959503 511.476868,497.044464 
	C504.510773,497.044464 497.933716,497.044464 489.759766,497.044464 
	C502.914917,513.010986 515.240845,527.971191 527.381592,543.242920 
	C524.872986,545.001831 522.549561,546.449280 520.072510,547.592407 
	C507.891815,532.084412 495.740509,516.976196 483.935333,501.602112 
	C481.350494,498.235809 478.880798,496.731628 474.572601,496.928986 
	C466.204803,497.312347 457.807068,497.041168 448.862610,497.041168 
	C448.862610,489.659760 448.862610,483.049957 448.956970,476.034424 
	C448.981537,466.466888 448.911743,457.305115 448.841980,448.143311 
z"/>
<path fill="#090404" opacity="1.000000" stroke="none" 
	d="
M702.813721,424.224060 
	C701.186462,421.535706 698.852539,420.747070 695.722351,420.911926 
	C690.641602,421.179565 685.536377,420.984039 680.135864,420.984039 
	C680.135864,425.328796 680.135864,429.236389 680.135864,433.143951 
	C679.833191,433.286804 679.530457,433.429626 679.227783,433.572479 
	C674.473633,426.617188 669.719482,419.661896 664.907898,412.362427 
	C712.168274,393.945251 758.079285,372.973328 801.637756,346.011810 
	C802.483765,346.350281 802.734497,346.603882 802.704712,347.027222 
	C801.627991,348.194305 800.831848,349.191620 799.856323,350.269470 
	C799.444702,350.518829 799.335266,350.746704 799.029419,351.167786 
	C796.476685,353.231476 794.243225,355.161072 791.692810,357.191833 
	C771.729858,372.614410 752.190796,388.075867 732.391785,403.196808 
	C722.783630,410.534790 712.688416,417.235077 702.813721,424.224060 
z"/>
<path fill="#E53E2F" opacity="1.000000" stroke="none" 
	d="
M822.609436,349.802124 
	C821.159363,351.594208 819.408264,353.228912 817.298523,354.622253 
	C815.426697,352.995270 814.070374,351.360901 812.362610,350.283875 
	C809.957825,348.767212 807.292542,347.663696 804.921387,346.121277 
	C807.925964,343.342804 810.747864,340.826599 813.569763,338.310394 
	C813.713684,338.180817 813.857666,338.051239 814.233765,337.711548 
	C814.465759,337.501434 814.495544,337.460205 814.495544,337.460205 
	C813.195801,344.025024 818.264038,346.506592 822.609436,349.802124 
z"/>
<path fill="#0D0D0D" opacity="1.000000" stroke="none" 
	d="
M813.266052,338.359436 
	C810.747864,340.826599 807.925964,343.342804 804.635010,346.241577 
	C803.772400,346.701935 803.378784,346.779724 802.985229,346.857483 
	C802.734497,346.603882 802.483765,346.350281 801.985840,345.985260 
	C805.479919,343.385406 809.221130,340.896942 813.266052,338.359436 
z"/>
<path fill="#0D0D0D" opacity="1.000000" stroke="none" 
	d="
M814.486328,337.481812 
	C814.495544,337.460205 814.465759,337.501434 814.450562,337.518127 
	C814.435364,337.534790 814.477173,337.503387 814.486328,337.481812 
z"/>
<path fill="#020101" opacity="1.000000" stroke="none" 
	d="
M448.862610,476.440155 
	C448.862610,483.049957 448.862610,489.659760 448.862610,497.041168 
	C457.807068,497.041168 466.204803,497.312347 474.572601,496.928986 
	C478.880798,496.731628 481.350494,498.235809 483.935333,501.602112 
	C495.740509,516.976196 507.891815,532.084412 519.852112,547.863403 
	C516.520142,550.943787 513.254883,553.448975 509.655762,556.046387 
	C470.917084,581.991638 432.790161,608.203918 398.878326,639.983704 
	C387.718689,650.441772 376.382172,660.711060 365.126526,671.066650 
	C360.372986,675.117920 355.619476,679.169189 350.555237,683.369873 
	C311.670685,647.587219 284.182739,604.538208 267.552460,554.546021 
	C265.617981,548.730835 264.061768,542.789734 262.393524,536.497803 
	C270.678711,532.225159 278.630341,527.574341 287.172211,524.643677 
	C314.526306,515.258484 342.098938,506.510284 370.319794,497.289185 
	C378.306244,497.062134 385.560150,497.062134 392.788879,497.062134 
	C392.942749,494.543243 393.053802,492.725647 393.529083,490.841614 
	C398.807800,489.375916 403.722290,487.976654 408.844055,486.892456 
	C410.554443,489.599091 411.949829,492.069031 413.607330,494.348328 
	C414.403778,495.443573 415.672882,496.924072 416.766357,496.957062 
	C424.319885,497.184937 431.883575,497.077026 440.034241,497.077026 
	C436.533569,491.242035 433.488556,486.166504 430.859009,481.004639 
	C437.137177,479.425568 442.999908,477.932861 448.862610,476.440155 
M374.914673,626.085815 
	C374.978943,627.975098 374.743286,629.964355 375.316498,631.683960 
	C375.461395,632.118591 378.503632,632.198303 379.627808,631.498535 
	C380.497131,630.957458 381.096222,628.033020 380.695312,627.748840 
	C379.216919,626.701233 377.272736,626.311035 374.914673,626.085815 
M367.122925,597.821655 
	C366.492798,599.595215 365.600586,601.343872 365.428040,603.160889 
	C365.387970,603.583130 368.110229,604.980286 369.006378,604.604675 
	C370.220276,604.095764 371.906403,601.862122 371.596710,601.164917 
	C370.956482,599.723389 369.131226,598.808289 367.122925,597.821655 
M447.951294,584.568604 
	C449.361298,585.618713 450.665161,586.970398 452.248627,587.527283 
	C452.699280,587.685791 454.617676,585.561584 454.667267,584.431702 
	C454.715607,583.330566 452.955109,581.093384 452.474670,581.218628 
	C450.862976,581.638855 449.468353,582.891418 447.951294,584.568604 
M333.266113,602.739380 
	C333.214630,604.388428 333.163147,606.037537 333.111633,607.686584 
	C334.385590,607.319702 336.439697,607.302063 336.789307,606.521240 
	C337.903595,604.032593 336.925232,602.349487 333.266113,602.739380 
z"/>
<path fill="#FBFBFA" opacity="1.000000" stroke="none" 
	d="
M430.443542,481.090973 
	C433.488556,486.166504 436.533569,491.242035 440.034241,497.077026 
	C431.883575,497.077026 424.319885,497.184937 416.766357,496.957062 
	C415.672882,496.924072 414.403778,495.443573 413.607330,494.348328 
	C411.949829,492.069031 410.554443,489.599091 408.791687,486.608307 
	C406.554474,482.966858 405.076233,479.337860 402.427795,477.083801 
	C400.590179,475.519836 397.147522,475.625214 394.407196,475.554169 
	C393.956329,475.542511 393.075378,478.454437 393.009003,480.040955 
	C392.857880,483.654816 393.088989,487.284698 393.164825,490.908051 
	C393.053802,492.725647 392.942749,494.543243 392.788879,497.062134 
	C385.560150,497.062134 378.306244,497.062134 370.598053,497.043884 
	C369.987823,490.641724 369.831848,484.257782 369.578613,477.412598 
	C369.481293,458.486389 369.481293,440.021393 369.481293,420.966675 
	C374.623260,420.966675 379.563477,420.897980 384.501129,420.980865 
	C394.961273,421.156433 405.570007,420.377075 415.845490,421.867188 
	C432.704712,424.312012 439.326965,433.327698 438.892242,451.252258 
	C437.503113,461.171997 432.498779,467.685333 424.008972,471.933990 
	C426.338593,475.249268 428.391052,478.170105 430.443542,481.090973 
M411.847961,456.687622 
	C415.769012,453.893402 416.539642,449.976959 415.477692,445.630798 
	C414.584106,441.973663 411.777557,439.989075 408.241638,439.764252 
	C403.173187,439.441925 398.069000,439.682068 393.008911,439.682068 
	C393.008911,445.992615 393.008911,451.878479 393.008911,458.497131 
	C399.340332,458.018921 405.249969,457.572571 411.847961,456.687622 
z"/>
<path fill="#FAFAF9" opacity="1.000000" stroke="none" 
	d="
M316.139374,498.175110 
	C299.112915,496.250732 286.723175,488.232544 281.866638,471.738098 
	C277.236206,456.011505 279.782501,441.279083 292.316315,429.602142 
	C305.978943,416.873535 332.183258,416.120392 346.902100,427.707306 
	C361.975433,439.573242 366.092377,462.006531 356.432220,479.611023 
	C356.273315,479.900604 356.177612,480.224915 355.960632,480.915222 
	C345.988312,494.477692 332.691437,499.646545 316.139374,498.175110 
M316.329376,439.354248 
	C302.349701,443.380310 301.020630,459.999878 305.658783,469.543091 
	C309.105408,476.634644 317.203918,480.347809 324.909698,478.498993 
	C334.706665,476.148499 340.003723,466.432648 338.060608,454.377686 
	C336.391907,444.025177 328.174683,438.070526 316.329376,439.354248 
z"/>
<path fill="#E33B2D" opacity="1.000000" stroke="none" 
	d="
M365.430023,671.204590 
	C376.382172,660.711060 387.718689,650.441772 398.878326,639.983704 
	C432.790161,608.203918 470.917084,581.991638 509.695038,556.395142 
	C512.734619,559.472961 515.401062,562.294373 518.067505,565.115784 
	C506.799805,573.328979 495.327759,581.277893 484.301605,589.803528 
	C446.958221,618.678162 409.774170,647.758972 372.517761,676.746277 
	C371.621765,677.443481 370.591827,677.968506 369.295258,678.629395 
	C371.190613,674.783630 368.690491,672.962585 365.430023,671.204590 
z"/>
<path fill="#F6F6F6" opacity="1.000000" stroke="none" 
	d="
M664.858215,633.060181 
	C671.387573,633.439453 677.917603,633.808350 684.446228,634.199646 
	C710.635803,635.769470 724.232910,623.496887 729.052063,596.211060 
	C732.650818,575.834534 729.454834,555.578369 722.991333,536.189209 
	C717.441895,519.541748 710.129944,503.481628 703.576172,487.170319 
	C703.367065,486.649994 702.923401,486.223907 701.655762,484.441650 
	C701.655762,489.476685 701.655762,492.989227 701.655762,496.784790 
	C694.196594,496.784790 687.309631,496.784790 680.007812,496.784790 
	C680.007812,483.344086 680.007812,470.081604 680.155090,456.085938 
	C690.376709,448.576996 700.451050,441.801239 710.714478,435.329742 
	C717.069519,443.277588 723.235535,450.921204 729.401489,458.564819 
	C730.525269,456.327301 730.501587,454.561218 730.529175,452.795959 
	C730.695190,442.179565 730.873108,431.563324 731.013367,420.934723 
	C730.979675,420.922394 730.922058,420.965240 730.922058,420.965240 
	C737.732422,420.965240 744.542786,420.965240 751.709351,420.965240 
	C751.709351,446.359314 751.709351,471.404358 751.709351,497.049164 
	C745.895142,497.049164 740.106018,497.215363 734.340271,496.921661 
	C733.046814,496.855774 731.584778,495.386292 730.625000,494.214966 
	C721.467590,483.038544 712.401550,471.787262 703.309265,460.557434 
	C702.673950,460.715851 702.038574,460.874268 701.403198,461.032654 
	C702.100525,466.045441 701.568237,471.665588 703.695435,475.972046 
	C717.092529,503.093933 728.214417,530.947815 733.151672,560.944336 
	C736.017761,578.357300 736.761597,595.759949 730.493896,612.741150 
	C724.714233,628.400269 713.507141,636.918335 696.825256,638.137939 
	C684.583374,639.032959 672.615356,637.455750 660.970093,633.737915 
	C661.395996,633.258789 661.704468,633.121765 662.362793,633.070129 
	C663.427856,633.123718 664.143066,633.091919 664.858215,633.060181 
z"/>
<path fill="#F9F9F8" opacity="1.000000" stroke="none" 
	d="
M813.394348,457.492798 
	C822.229736,470.534119 830.862793,483.267822 840.229126,497.083130 
	C831.244141,497.083130 823.513550,497.209320 815.795532,496.954132 
	C814.564880,496.913452 813.078064,495.376709 812.242676,494.164368 
	C807.624207,487.462158 803.186951,480.635315 798.648254,473.877625 
	C797.664185,472.412476 796.519287,471.055359 795.671631,469.941742 
	C783.645386,475.996094 787.971924,487.135468 786.955139,496.762024 
	C779.386414,496.762024 772.137146,496.762024 764.557129,496.762024 
	C764.557129,471.661194 764.557129,446.622070 764.557129,421.300873 
	C771.898438,421.300873 779.141235,421.300873 787.073792,421.300873 
	C787.073792,430.531158 787.073792,439.683716 787.073792,448.836304 
	C787.441956,448.952789 787.810059,449.069275 788.178223,449.185760 
	C793.361145,443.013184 799.044189,437.184998 803.595032,430.577118 
	C808.773438,423.057861 814.854675,419.257233 824.221741,420.835083 
	C828.552673,421.564636 833.108398,420.959534 838.429810,420.959534 
	C828.806885,431.934814 819.687622,442.335632 810.386047,452.944397 
	C811.416748,454.502136 812.304382,455.843658 813.394348,457.492798 
z"/>
<path fill="#E53E2F" opacity="1.000000" stroke="none" 
	d="
M710.525391,435.025452 
	C700.451050,441.801239 690.376709,448.576996 680.094116,455.612671 
	C677.131165,457.501221 674.376465,459.129791 671.134583,460.546539 
	C668.099426,457.898529 665.551331,455.462341 663.003296,453.026123 
	C663.655457,452.128296 664.307678,451.230499 665.408447,449.973969 
	C669.655884,446.961243 673.454712,444.307220 677.253540,441.653137 
	C685.646729,436.048706 694.039917,430.444244 702.623413,424.531921 
	C712.688416,417.235077 722.783630,410.534790 732.391785,403.196808 
	C752.190796,388.075867 771.729858,372.614410 791.744812,357.554138 
	C795.282349,363.054993 798.320862,358.033722 801.841614,357.211487 
	C800.907043,360.924316 795.054382,364.657806 802.315186,367.147369 
	C785.525696,379.947327 768.776123,392.800232 751.927063,405.521332 
	C745.161316,410.629517 738.176819,415.448151 731.106995,420.681915 
	C730.922058,420.965240 730.979675,420.922394 730.701294,421.107666 
	C723.790405,425.870422 717.157898,430.447937 710.525391,435.025452 
z"/>
<path fill="#E33B2D" opacity="1.000000" stroke="none" 
	d="
M593.529419,496.978577 
	C596.262329,495.539795 599.142151,494.320862 601.696533,492.614746 
	C606.494995,489.409729 611.105530,485.923279 616.313477,482.146118 
	C623.000244,477.508636 629.167664,473.278870 635.335083,469.049133 
	C635.893311,468.924103 636.451599,468.799103 637.615845,468.918427 
	C639.867859,472.583069 641.513794,476.003387 643.097412,479.665710 
	C642.745605,480.449402 642.456238,480.991028 642.166931,481.532654 
	C640.398499,482.342804 638.470154,482.918152 636.885437,483.997894 
	C605.992615,505.045898 575.141846,526.155701 544.267273,547.230530 
	C543.475647,547.770874 542.511780,548.058899 541.293091,548.176636 
	C539.945435,544.179749 538.932922,540.470764 538.096863,536.485962 
	C553.540466,525.708191 568.841003,515.254456 584.048462,504.666992 
	C587.378784,502.348419 590.377808,499.553894 593.529419,496.978577 
z"/>
<path fill="#F6F6F6" opacity="1.000000" stroke="none" 
	d="
M537.899475,552.283020 
	C547.226746,560.028625 556.600952,567.718872 565.850281,575.556458 
	C568.351135,577.675598 571.190369,579.895691 572.546753,582.709412 
	C573.661011,585.020935 573.927979,589.237305 572.533691,590.871155 
	C570.903442,592.781372 566.559387,594.190857 564.287048,593.362976 
	C559.433105,591.594604 554.337158,589.033936 550.809998,585.379395 
	C543.095581,577.385986 536.297546,568.508179 528.973999,559.387329 
	C531.848389,556.616394 534.873962,554.449707 537.899475,552.283020 
z"/>
<path fill="#FBFBFA" opacity="1.000000" stroke="none" 
	d="
M642.206543,482.044983 
	C642.456238,480.991028 642.745605,480.449402 643.442505,479.569946 
	C650.971558,474.718964 658.093079,470.205780 665.214539,465.692596 
	C665.214539,475.941864 665.214539,486.191162 665.214539,496.753723 
	C657.761902,496.753723 650.355225,496.753723 642.246155,496.753723 
	C642.246155,492.062561 642.246155,487.309937 642.206543,482.044983 
z"/>
<path fill="#E74437" opacity="1.000000" stroke="none" 
	d="
M538.082336,552.061279 
	C534.873962,554.449707 531.848389,556.616394 528.741699,559.087036 
	C525.354858,561.243591 522.049072,563.096069 518.405396,565.032166 
	C515.401062,562.294373 512.734619,559.472961 510.028870,556.302856 
	C513.254883,553.448975 516.520142,550.943787 520.005859,548.167664 
	C522.549561,546.449280 524.872986,545.001831 527.680908,543.145447 
	C531.417114,540.744934 534.668762,538.753418 537.920349,536.761841 
	C538.932922,540.470764 539.945435,544.179749 540.962158,548.249817 
	C540.065979,549.687134 539.165588,550.763367 538.082336,552.061279 
z"/>
<path fill="#E74437" opacity="1.000000" stroke="none" 
	d="
M665.418823,465.589844 
	C658.093079,470.205780 650.971558,474.718964 643.504944,479.327881 
	C641.513794,476.003387 639.867859,472.583069 637.902954,468.966370 
	C645.819580,463.513428 654.055115,458.256897 662.646973,453.013245 
	C665.551331,455.462341 668.099426,457.898529 670.803528,460.629089 
	C670.574036,461.279785 670.188477,461.636169 669.269836,462.095032 
	C668.489868,462.453186 668.242981,462.708771 667.996155,462.964355 
	C667.996155,462.964386 667.998169,463.006775 667.672424,463.027191 
	C666.915833,463.434082 666.484924,463.820557 666.054077,464.207031 
	C665.910461,464.633728 665.766785,465.060425 665.418823,465.589844 
z"/>
<path fill="#EE3D2B" opacity="1.000000" stroke="none" 
	d="
M802.631348,367.053955 
	C795.054382,364.657806 800.907043,360.924316 801.841614,357.211487 
	C798.320862,358.033722 795.282349,363.054993 792.061829,357.452942 
	C794.243225,355.161072 796.476685,353.231476 799.170166,351.049805 
	C799.806580,350.622284 799.941711,350.419373 800.035645,350.188934 
	C800.831848,349.191620 801.627991,348.194305 802.704712,347.027252 
	C803.378784,346.779724 803.772400,346.701935 804.452271,346.503845 
	C807.292542,347.663696 809.957825,348.767212 812.362610,350.283875 
	C814.070374,351.360901 815.426697,352.995270 816.986816,354.737885 
	C814.480286,357.307831 811.926819,359.520721 808.933472,361.914490 
	C808.344788,362.191162 808.219971,362.311829 808.119141,362.457245 
	C806.395264,363.958344 804.671387,365.459442 802.631348,367.053955 
z"/>
<path fill="#DADAD9" opacity="1.000000" stroke="none" 
	d="
M451.305359,685.028320 
	C453.845428,686.379517 456.023132,687.601624 458.200836,688.823792 
	C458.342346,688.570740 458.483887,688.317749 458.625397,688.064697 
	C458.654510,688.124817 458.683624,688.184937 458.712708,688.245056 
	C453.148987,688.619141 450.044464,691.371826 450.080688,697.307983 
	C449.113708,695.114258 448.541443,692.763000 447.180542,691.031677 
	C445.881348,689.378906 443.760803,688.371704 442.001312,687.080750 
	C441.904663,687.603088 441.808014,688.125488 441.711395,688.647827 
	C443.415192,687.816406 445.086182,686.905945 446.833557,686.179321 
	C448.152710,685.630798 449.569580,685.317322 451.305359,685.028320 
z"/>
<path fill="#DADAD9" opacity="1.000000" stroke="none" 
	d="
M655.837158,632.349609 
	C647.687988,629.920898 639.027710,628.658325 632.189453,623.238525 
	C632.389893,622.747498 632.590332,622.256470 632.790771,621.765442 
	C640.316345,624.441772 647.841919,627.118103 655.680542,630.351746 
	C655.941467,631.389282 655.889282,631.869446 655.837158,632.349609 
z"/>
<path fill="#DADAD9" opacity="1.000000" stroke="none" 
	d="
M775.158386,630.574951 
	C773.296143,628.206787 771.433899,625.838623 769.597046,623.502747 
	C771.043091,621.498413 772.679626,619.230103 774.015869,617.377930 
	C776.549255,619.568115 779.279297,621.928345 780.945923,623.369202 
	C779.354187,625.091370 777.076477,627.555603 774.968506,630.341187 
	C775.138123,630.662537 775.158386,630.574951 775.158386,630.574951 
z"/>
<path fill="#DADAD9" opacity="1.000000" stroke="none" 
	d="
M801.847107,548.497803 
	C803.450989,552.878601 803.342590,557.726074 801.565186,561.618896 
	C799.810486,559.476501 798.069153,557.350403 796.726196,555.710693 
	C798.117126,553.117310 799.511292,550.511414 800.919189,547.913025 
	C800.989746,547.782837 801.248413,547.608215 801.303467,547.642212 
	C801.501770,547.764587 801.650330,547.967529 801.847107,548.497803 
z"/>
<path fill="#DADAD9" opacity="1.000000" stroke="none" 
	d="
M651.619690,543.893188 
	C656.251953,539.565430 656.569458,545.636597 659.334839,546.344727 
	C657.533081,548.013245 655.981384,549.450317 654.166321,551.131226 
	C651.802307,549.150879 649.404602,547.142273 647.854248,545.843567 
	C648.157837,545.694580 649.746338,544.915039 651.619690,543.893188 
z"/>
<path fill="#DADAD9" opacity="1.000000" stroke="none" 
	d="
M474.150482,625.990845 
	C474.558228,628.061707 474.642883,629.955505 474.727539,631.849365 
	C473.185913,631.914978 471.209869,632.583557 470.226166,631.874817 
	C469.262848,631.180664 468.527435,628.351501 469.081451,627.759399 
	C470.143433,626.624390 472.189575,626.410156 474.150482,625.990845 
z"/>
<path fill="#F3F3F2" opacity="1.000000" stroke="none" 
	d="
M769.271851,554.907898 
	C769.939880,556.745972 770.581665,558.498169 770.457275,560.194153 
	C770.425293,560.629883 767.723389,561.488586 766.712341,561.059265 
	C765.706604,560.632324 764.444519,558.144531 764.761353,557.755981 
	C765.802673,556.478821 767.509399,555.744202 769.271851,554.907898 
z"/>
<path fill="#DADAD9" opacity="1.000000" stroke="none" 
	d="
M720.919861,556.992615 
	C722.716248,557.732239 724.466248,558.369629 725.552795,559.595215 
	C725.906311,559.993958 724.774902,562.686035 723.880493,562.979004 
	C722.628418,563.389160 720.962341,562.535217 719.473328,562.222046 
	C719.854065,560.521057 720.234802,558.820068 720.919861,556.992615 
z"/>
<path fill="#DADAD9" opacity="1.000000" stroke="none" 
	d="
M815.054077,577.170471 
	C813.560913,578.561523 812.137146,579.847961 810.469421,580.408813 
	C810.029419,580.556702 808.055115,578.361389 808.177979,577.424805 
	C808.347534,576.131897 810.044312,573.913208 810.721252,574.040222 
	C812.275757,574.331848 813.609070,575.802490 815.054077,577.170471 
z"/>
<path fill="#DADAD9" opacity="1.000000" stroke="none" 
	d="
M719.291016,583.569214 
	C720.222168,581.713684 721.192566,580.072571 722.524658,578.814209 
	C722.718323,578.631287 725.250488,580.080200 725.595886,581.135498 
	C725.951355,582.221436 725.055359,584.835022 724.531250,584.883606 
	C722.880676,585.036560 721.147705,584.299377 719.291016,583.569214 
z"/>
<path fill="#DADAD9" opacity="1.000000" stroke="none" 
	d="
M764.144775,544.830811 
	C762.599548,543.932495 761.345764,542.891785 760.092041,541.851013 
	C761.355652,541.193298 762.619263,540.535583 763.882874,539.877808 
	C764.067322,541.481323 764.251831,543.084900 764.144775,544.830811 
z"/>
<path fill="#DADAD9" opacity="1.000000" stroke="none" 
	d="
M474.173767,657.009399 
	C475.839172,657.411621 477.264893,658.077576 478.690643,658.743530 
	C477.804077,659.678406 476.917511,660.613342 476.030945,661.548279 
	C475.331970,660.123230 474.633026,658.698242 474.173767,657.009399 
z"/>
<path fill="#DADAD9" opacity="1.000000" stroke="none" 
	d="
M700.777954,610.773193 
	C699.862854,612.284973 698.805603,613.500793 697.748291,614.716614 
	C697.149170,613.531372 695.802612,612.104980 696.092407,611.206543 
	C696.927490,608.618347 698.782715,608.707825 700.777954,610.773193 
z"/>
<path fill="#DADAD9" opacity="1.000000" stroke="none" 
	d="
M699.707825,579.713135 
	C696.459106,579.741516 695.880005,577.970886 696.946045,575.813171 
	C697.291870,575.113159 699.494446,574.542358 700.236633,574.970825 
	C702.675537,576.379028 702.073303,578.130615 699.707825,579.713135 
z"/>
<path fill="#DADAD9" opacity="1.000000" stroke="none" 
	d="
M796.808899,584.162842 
	C795.186584,583.842102 793.803223,583.266418 792.419861,582.690796 
	C793.299377,581.759094 794.178833,580.827454 795.058350,579.895752 
	C795.721558,581.233154 796.384705,582.570496 796.808899,584.162842 
z"/>
<path fill="#F6F6F6" opacity="1.000000" stroke="none" 
	d="
M656.065796,632.566895 
	C655.889282,631.869446 655.941467,631.389282 655.978027,630.547119 
	C657.754333,630.609009 659.546143,631.033020 661.572876,631.910767 
	C661.822510,632.588928 661.890930,632.795654 662.012939,632.984741 
	C661.704468,633.121765 661.395996,633.258789 660.593628,633.511292 
	C658.831299,633.345886 657.562805,633.065063 656.065796,632.566895 
z"/>
<path fill="#DADAD9" opacity="1.000000" stroke="none" 
	d="
M662.362793,633.070068 
	C661.890930,632.795654 661.822510,632.588928 661.844116,632.203735 
	C662.716614,632.293152 663.552612,632.543274 664.623413,632.926758 
	C664.143066,633.091919 663.427856,633.123718 662.362793,633.070068 
z"/>
<path fill="#DADAD9" opacity="1.000000" stroke="none" 
	d="
M775.228455,632.337463 
	C775.023743,632.426880 774.819031,632.516296 774.614319,632.605713 
	C774.760803,632.628296 774.907349,632.650879 775.096313,632.503418 
	C775.138855,632.333374 775.228455,632.337463 775.228455,632.337463 
z"/>
<path fill="#E53E2F" opacity="1.000000" stroke="none" 
	d="
M666.345459,464.148010 
	C666.484924,463.820557 666.915833,463.434082 667.653809,463.016907 
	C667.519592,463.353790 667.078247,463.721405 666.345459,464.148010 
z"/>
<path fill="#DADAD9" opacity="1.000000" stroke="none" 
	d="
M775.148682,632.377197 
	C775.349915,632.114014 775.541321,631.807068 775.445557,631.037476 
	C775.158386,630.574951 775.138123,630.662537 775.184692,630.658142 
	C775.131653,631.088257 775.032104,631.522766 775.080444,632.147339 
	C775.228455,632.337463 775.138855,632.333374 775.148682,632.377197 
z"/>
<path fill="#E53E2F" opacity="1.000000" stroke="none" 
	d="
M808.275269,362.470459 
	C808.219971,362.311829 808.344788,362.191162 808.608398,362.030304 
	C808.746887,362.206421 808.649658,362.379211 808.275269,362.470459 
z"/>
<path fill="#E53E2F" opacity="1.000000" stroke="none" 
	d="
M668.268616,462.920380 
	C668.242981,462.708771 668.489868,462.453186 669.002930,462.137207 
	C669.026428,462.343323 668.783752,462.609863 668.268616,462.920380 
z"/>
<path fill="#EC3F30" opacity="1.000000" stroke="none" 
	d="
M430.859009,481.004639 
	C428.391052,478.170105 426.338593,475.249268 424.008972,471.933990 
	C432.498779,467.685333 437.503113,461.171997 438.961517,451.726410 
	C442.106781,450.346619 445.120819,449.291046 448.488403,448.189392 
	C448.911743,457.305115 448.981537,466.466888 448.956970,476.034424 
	C442.999908,477.932861 437.137177,479.425568 430.859009,481.004639 
z"/>
<path fill="#DADAD9" opacity="1.000000" stroke="none" 
	d="
M756.044434,275.083618 
	C754.686646,276.412598 753.679993,277.679688 752.862915,278.708130 
	C750.874084,276.850952 749.010193,275.110504 747.186340,273.407440 
	C748.804382,272.117615 750.717285,270.592743 753.064087,268.722015 
	C753.470398,271.339600 758.857788,270.700958 756.044434,275.083618 
z"/>
<path fill="#DADAD9" opacity="1.000000" stroke="none" 
	d="
M332.001740,357.990448 
	C330.927612,356.586548 329.933441,355.516357 328.878723,354.380981 
	C330.548126,352.921021 332.224365,351.455109 333.959961,349.937286 
	C335.839172,351.579163 337.591583,353.110291 339.445648,354.730194 
	C337.981842,355.992523 336.363770,357.571228 334.531860,358.841583 
	C334.061127,359.168030 332.916687,358.522949 332.001740,357.990448 
z"/>
<path fill="#DADAD9" opacity="1.000000" stroke="none" 
	d="
M619.975220,204.069061 
	C622.315613,199.978455 623.534851,204.052124 624.177551,204.685959 
	C625.094177,205.590042 625.511658,207.731110 625.110901,209.024109 
	C624.746826,210.198486 623.004089,210.945511 621.683289,212.034103 
	C620.048889,210.487747 618.454834,208.979645 616.573120,207.199356 
	C617.668640,206.196518 618.690918,205.260696 619.975220,204.069061 
z"/>
<path fill="#DADAD9" opacity="1.000000" stroke="none" 
	d="
M620.086060,278.202881 
	C620.991699,276.318787 621.815002,274.526733 623.160583,273.314331 
	C623.518555,272.991791 626.204529,274.201996 626.523804,275.146973 
	C626.946045,276.396729 626.199158,279.319916 625.766479,279.357513 
	C623.948975,279.515472 622.061340,278.865967 620.086060,278.202881 
z"/>
<path fill="#DADAD9" opacity="1.000000" stroke="none" 
	d="
M579.751404,217.045319 
	C577.133545,218.695068 574.904907,218.721161 573.982178,215.797028 
	C573.623962,214.661804 574.133911,212.653320 574.996582,211.903488 
	C575.830811,211.178421 578.562073,211.057877 578.826843,211.550156 
	C579.637085,213.056702 579.662048,214.985596 579.751404,217.045319 
z"/>
<path fill="#DADAD9" opacity="1.000000" stroke="none" 
	d="
M546.088013,209.479828 
	C545.167786,211.243393 544.405151,213.095581 543.032043,213.881714 
	C542.413940,214.235596 540.050110,212.726410 539.467773,211.566025 
	C539.034119,210.701935 540.182251,207.932236 540.640747,207.928711 
	C542.422852,207.915009 544.210876,208.666870 546.088013,209.479828 
z"/>
<path fill="#DADAD9" opacity="1.000000" stroke="none" 
	d="
M551.228027,238.792633 
	C550.563354,237.156723 550.222168,235.587692 549.880981,234.018677 
	C551.183899,234.172760 552.486816,234.326828 553.789734,234.480896 
	C553.043640,235.940430 552.297546,237.399979 551.228027,238.792633 
z"/>
<path fill="#020202" opacity="1.000000" stroke="none" 
	d="
M511.071838,426.182678 
	C510.934143,424.705017 510.796417,423.227356 510.621979,421.355347 
	C490.120209,421.355347 469.721497,421.355347 449.164795,421.355347 
	C449.069427,423.176697 448.976532,424.950348 448.798981,428.340485 
	C447.274902,425.939087 446.379944,424.744049 445.705963,423.435242 
	C432.952637,398.668427 422.246185,373.105896 416.646484,345.693756 
	C413.365662,329.633270 411.656219,313.402557 414.819550,297.072144 
	C419.570465,272.545837 437.991302,259.037811 462.913818,261.690033 
	C485.602814,264.104523 505.824982,273.203186 524.904358,285.067047 
	C566.607056,310.998444 601.729492,344.327301 632.682190,382.397705 
	C610.103699,391.185669 587.889587,399.778687 565.478516,407.822662 
	C547.466736,414.287567 529.216370,420.087585 511.071838,426.182678 
M482.139923,304.429016 
	C482.793335,304.025085 483.446747,303.621155 484.536865,302.947266 
	C482.136047,301.044800 480.034210,299.379272 478.015991,297.779999 
	C476.401581,299.715118 475.205994,301.148254 473.846161,302.778259 
	C476.586823,303.578247 477.408112,309.785980 482.139923,304.429016 
z"/>
<path fill="#080606" opacity="1.000000" stroke="none" 
	d="
M538.096863,536.485962 
	C534.668762,538.753418 531.417114,540.744934 527.866211,542.833862 
	C515.240845,527.971191 502.914917,513.010986 489.759766,497.044464 
	C497.933716,497.044464 504.510773,497.044464 511.476868,497.044464 
	C511.476868,490.959503 511.476868,485.242676 511.476868,478.768829 
	C502.017731,478.768829 492.546570,478.181793 483.193787,478.980530 
	C477.212097,479.491333 475.304108,475.779510 473.182983,472.089569 
	C471.723114,469.549866 473.609131,468.818909 476.165253,468.773315 
	C485.147339,468.613220 494.125488,468.227661 503.104675,467.914581 
	C504.075806,467.880707 505.043976,467.761993 506.412933,467.649933 
	C506.560730,465.560669 506.697815,463.622620 507.338257,461.257263 
	C512.795654,459.230103 517.749695,457.630219 522.925537,456.202637 
	C527.107666,459.299500 530.721130,463.008820 535.115601,464.950989 
	C540.669678,467.405731 546.909546,468.264374 552.757324,470.115662 
	C556.306396,471.239136 562.146790,471.144623 561.251709,476.459259 
	C560.433228,481.319000 554.891846,480.970154 551.149353,480.223145 
	C542.334045,478.463684 533.667847,475.957001 524.403503,473.616730 
	C522.643311,477.937347 520.361084,483.539429 517.964844,489.421295 
	C534.398254,498.915527 551.306885,501.555695 569.107361,495.793701 
	C576.146057,493.515289 581.680603,489.020264 583.957520,481.496124 
	C587.921692,468.396484 582.220154,457.998840 568.341919,453.198364 
	C563.896912,451.660797 559.349792,450.418518 555.035217,448.716034 
	C561.334717,446.845306 567.448364,445.299683 573.891113,443.819885 
	C575.015991,443.231140 575.811707,442.576660 577.019714,441.965332 
	C582.542786,440.646729 587.653625,439.284943 592.764404,437.923187 
	C592.799072,454.670990 592.822449,471.418823 592.880005,488.166565 
	C592.889160,490.814880 593.052490,493.462646 593.337036,496.544617 
	C590.377808,499.553894 587.378784,502.348419 584.048462,504.666992 
	C568.841003,515.254456 553.540466,525.708191 538.096863,536.485962 
z"/>
<path fill="#EC3F30" opacity="1.000000" stroke="none" 
	d="
M522.703735,456.030334 
	C517.749695,457.630219 512.795654,459.230103 507.467224,460.834045 
	C506.027130,450.591949 506.027954,450.531891 495.230469,450.382019 
	C487.623932,450.276428 480.014740,450.361664 472.135864,450.361664 
	C472.135864,446.726898 472.135864,443.647797 472.135864,439.717438 
	C484.941956,439.717438 497.625092,439.717438 510.896790,439.717438 
	C510.896790,434.942535 510.896790,431.002960 510.984314,426.623016 
	C529.216370,420.087585 547.466736,414.287567 565.478516,407.822662 
	C587.889587,399.778687 610.103699,391.185669 632.783325,382.709839 
	C641.243347,392.802460 649.322937,403.015015 657.188110,413.823608 
	C651.601135,416.467438 646.228638,418.515259 640.459351,420.578491 
	C632.177002,423.114258 624.291443,425.634583 616.405945,428.154907 
	C616.253662,426.019287 616.101379,423.883667 615.918030,421.312927 
	C608.481384,421.312927 600.998596,421.312927 592.985291,421.312927 
	C592.985291,426.554077 592.985291,431.791595 592.874878,437.476166 
	C587.653625,439.284943 582.542786,440.646729 577.071655,441.582886 
	C578.712830,436.478302 580.714294,431.799347 582.898438,426.693268 
	C567.709290,419.926819 552.713257,416.782501 537.007874,421.689636 
	C527.291504,424.725433 521.122681,431.594666 520.474792,441.962280 
	C520.185852,446.587128 521.899109,451.337128 522.703735,456.030334 
z"/>
<path fill="#020101" opacity="1.000000" stroke="none" 
	d="
M616.305908,428.604980 
	C624.291443,425.634583 632.177002,423.114258 640.557983,420.872253 
	C641.345398,421.426788 641.637329,421.703003 641.929260,421.979187 
	C642.053406,427.015656 642.177551,432.052063 641.895508,437.743408 
	C641.670532,439.602417 641.851624,440.806549 642.032776,442.010681 
	C642.168091,444.137360 642.303345,446.264069 642.464355,448.795044 
	C633.646667,448.795044 625.148621,448.795044 616.205933,448.795044 
	C616.205933,442.200989 616.205933,435.628021 616.305908,428.604980 
z"/>
<path fill="#0D0D0D" opacity="1.000000" stroke="none" 
	d="
M677.036499,441.320038 
	C673.454712,444.307220 669.655884,446.961243 665.528992,449.643890 
	C665.200928,441.770996 665.200928,433.869507 665.200928,425.967987 
	C665.640137,425.850891 666.079346,425.733795 666.518494,425.616699 
	C669.952148,430.740112 673.385803,435.863495 677.036499,441.320038 
z"/>
<path fill="#0D0D0D" opacity="1.000000" stroke="none" 
	d="
M634.840698,468.972168 
	C629.167664,473.278870 623.000244,477.508636 616.523071,481.868530 
	C616.213318,477.902313 616.213318,473.805939 616.213318,468.895203 
	C622.313477,468.895203 628.329895,468.895203 634.840698,468.972168 
z"/>
<path fill="#0D0D0D" opacity="1.000000" stroke="none" 
	d="
M642.277100,421.733704 
	C641.637329,421.703003 641.345398,421.426788 640.954834,420.856812 
	C646.228638,418.515259 651.601135,416.467438 657.292053,414.174500 
	C659.378052,416.005859 661.145630,418.082306 664.044983,421.488220 
	C655.953979,421.488220 649.289429,421.488220 642.277100,421.733704 
z"/>
<path fill="#0D0D0D" opacity="1.000000" stroke="none" 
	d="
M642.204041,441.760925 
	C641.851624,440.806549 641.670532,439.602417 641.761292,438.193054 
	C642.147278,439.162231 642.261292,440.336700 642.204041,441.760925 
z"/>
<path fill="#E53E2F" opacity="1.000000" stroke="none" 
	d="
M799.856323,350.269470 
	C799.941711,350.419373 799.806580,350.622284 799.489441,350.915649 
	C799.335266,350.746704 799.444702,350.518829 799.856323,350.269470 
z"/>
<path fill="#E74437" opacity="1.000000" stroke="none" 
	d="
M393.529083,490.841614 
	C393.088989,487.284698 392.857880,483.654816 393.009003,480.040955 
	C393.075378,478.454437 393.956329,475.542511 394.407196,475.554169 
	C397.147522,475.625214 400.590179,475.519836 402.427795,477.083801 
	C405.076233,479.337860 406.554474,482.966858 408.584412,486.293213 
	C403.722290,487.976654 398.807800,489.375916 393.529083,490.841614 
z"/>
<path fill="#DADAD9" opacity="1.000000" stroke="none" 
	d="
M375.209229,625.879700 
	C377.272736,626.311035 379.216919,626.701233 380.695312,627.748840 
	C381.096222,628.033020 380.497131,630.957458 379.627808,631.498535 
	C378.503632,632.198303 375.461395,632.118591 375.316498,631.683960 
	C374.743286,629.964355 374.978943,627.975098 375.209229,625.879700 
z"/>
<path fill="#DADAD9" opacity="1.000000" stroke="none" 
	d="
M367.458160,597.749146 
	C369.131226,598.808289 370.956482,599.723389 371.596710,601.164917 
	C371.906403,601.862122 370.220276,604.095764 369.006378,604.604675 
	C368.110229,604.980286 365.387970,603.583130 365.428040,603.160889 
	C365.600586,601.343872 366.492798,599.595215 367.458160,597.749146 
z"/>
<path fill="#DADAD9" opacity="1.000000" stroke="none" 
	d="
M447.970947,584.197021 
	C449.468353,582.891418 450.862976,581.638855 452.474670,581.218628 
	C452.955109,581.093384 454.715607,583.330566 454.667267,584.431702 
	C454.617676,585.561584 452.699280,587.685791 452.248627,587.527283 
	C450.665161,586.970398 449.361298,585.618713 447.970947,584.197021 
z"/>
<path fill="#DADAD9" opacity="1.000000" stroke="none" 
	d="
M333.574402,602.619690 
	C336.925232,602.349487 337.903595,604.032593 336.789307,606.521240 
	C336.439697,607.302063 334.385590,607.319702 333.111633,607.686584 
	C333.163147,606.037537 333.214630,604.388428 333.574402,602.619690 
z"/>
<path fill="#0D0D0D" opacity="1.000000" stroke="none" 
	d="
M411.503784,456.906921 
	C405.249969,457.572571 399.340332,458.018921 393.008911,458.497131 
	C393.008911,451.878479 393.008911,445.992615 393.008911,439.682068 
	C398.069000,439.682068 403.173187,439.441925 408.241638,439.764252 
	C411.777557,439.989075 414.584106,441.973663 415.477692,445.630798 
	C416.539642,449.976959 415.769012,453.893402 411.503784,456.906921 
z"/>
<path fill="#080606" opacity="1.000000" stroke="none" 
	d="
M316.742493,439.291504 
	C328.174683,438.070526 336.391907,444.025177 338.060608,454.377686 
	C340.003723,466.432648 334.706665,476.148499 324.909698,478.498993 
	C317.203918,480.347809 309.105408,476.634644 305.658783,469.543091 
	C301.020630,459.999878 302.349701,443.380310 316.742493,439.291504 
z"/>
<path fill="#080606" opacity="1.000000" stroke="none" 
	d="
M710.714478,435.329712 
	C717.157898,430.447937 723.790405,425.870422 730.734985,421.119995 
	C730.873108,431.563324 730.695190,442.179565 730.529175,452.795959 
	C730.501587,454.561218 730.525269,456.327301 729.401489,458.564819 
	C723.235535,450.921204 717.069519,443.277588 710.714478,435.329712 
z"/>
<path fill="#F3F3F2" opacity="1.000000" stroke="none" 
	d="
M481.875763,304.700806 
	C477.408112,309.785980 476.586823,303.578247 473.846161,302.778259 
	C475.205994,301.148254 476.401581,299.715118 478.015991,297.779999 
	C480.034210,299.379272 482.136047,301.044800 484.536865,302.947266 
	C483.446747,303.621155 482.793335,304.025085 481.875763,304.700806 
z"/>
<path fill="#FAF9F8" opacity="1.000000" stroke="none" 
	d="
M522.925537,456.202606 
	C521.899109,451.337128 520.185852,446.587128 520.474792,441.962280 
	C521.122681,431.594666 527.291504,424.725433 537.007874,421.689636 
	C552.713257,416.782501 567.709290,419.926819 582.898438,426.693268 
	C580.714294,431.799347 578.712830,436.478302 576.659424,441.539734 
	C575.811707,442.576660 575.015991,443.231140 573.712830,443.573608 
	C569.942322,442.069885 566.763855,440.437012 563.396057,439.791809 
	C558.571533,438.867554 553.592285,438.210724 548.713379,438.387085 
	C546.877502,438.453461 545.137207,441.165741 543.353394,442.671814 
	C544.792236,444.296417 545.948425,446.454102 547.743896,447.405853 
	C549.818420,448.505493 552.456177,448.542603 554.849365,449.041138 
	C559.349792,450.418518 563.896912,451.660797 568.341919,453.198364 
	C582.220154,457.998840 587.921692,468.396484 583.957520,481.496124 
	C581.680603,489.020264 576.146057,493.515289 569.107361,495.793701 
	C551.306885,501.555695 534.398254,498.915527 517.964844,489.421295 
	C520.361084,483.539429 522.643311,477.937347 524.403503,473.616730 
	C533.667847,475.957001 542.334045,478.463684 551.149353,480.223145 
	C554.891846,480.970154 560.433228,481.319000 561.251709,476.459259 
	C562.146790,471.144623 556.306396,471.239136 552.757324,470.115662 
	C546.909546,468.264374 540.669678,467.405731 535.115601,464.950989 
	C530.721130,463.008820 527.107666,459.299500 522.925537,456.202606 
z"/>
<path fill="#E74437" opacity="1.000000" stroke="none" 
	d="
M555.035217,448.716003 
	C552.456177,448.542603 549.818420,448.505493 547.743896,447.405853 
	C545.948425,446.454102 544.792236,444.296417 543.353394,442.671814 
	C545.137207,441.165741 546.877502,438.453461 548.713379,438.387085 
	C553.592285,438.210724 558.571533,438.867554 563.396057,439.791809 
	C566.763855,440.437012 569.942322,442.069885 573.383667,443.507812 
	C567.448364,445.299683 561.334717,446.845306 555.035217,448.716003 
z"/>
</svg>